<?xml version="1.0" encoding="UTF-8"?>
<svg width="170px" height="40px" viewBox="0 0 170 40" version="1.1" xmlns="http://www.w3.org/2000/svg" xmlns:xlink="http://www.w3.org/1999/xlink">
    <!-- Generator: Sketch 50.2 (55047) - http://www.bohemiancoding.com/sketch -->
    <title>logo-text</title>
    <desc>Created with Sketch.</desc>
    <defs></defs>
    <g id="Page-1" stroke="none" stroke-width="1" fill="none" fill-rule="evenodd">
        <g id="logo" transform="translate(-50.000000, -8.000000)">
            <path d="M56.16,15.52 L63.42,15.52 C65.1200085,15.52 66.6499932,15.7799974 68.01,16.3 C69.3700068,16.8200026 70.5299952,17.5549953 71.49,18.505 C72.4500048,19.4550048 73.1849974,20.5899934 73.695,21.91 C74.2050026,23.2300066 74.46,24.6799921 74.46,26.26 C74.46,27.860008 74.2050026,29.3199934 73.695,30.64 C73.1849974,31.9600066 72.4500048,33.0899953 71.49,34.03 C70.5299952,34.9700047 69.3700068,35.6999974 68.01,36.22 C66.6499932,36.7400026 65.1200085,37 63.42,37 L56.16,37 L56.16,15.52 Z M63.24,33.16 C64.4200059,33.16 65.4599955,32.9950017 66.36,32.665 C67.2600045,32.3349984 68.009997,31.870003 68.61,31.27 C69.210003,30.669997 69.6599985,29.9450043 69.96,29.095 C70.2600015,28.2449958 70.41,27.3000052 70.41,26.26 C70.41,25.2199948 70.2600015,24.2750043 69.96,23.425 C69.6599985,22.5749957 69.210003,21.850003 68.61,21.25 C68.009997,20.649997 67.2600045,20.1850017 66.36,19.855 C65.4599955,19.5249984 64.4200059,19.36 63.24,19.36 L60.21,19.36 L60.21,33.16 L63.24,33.16 Z M85.81,35.44 L85.57,35.44 C85.1099977,36.0000028 84.5550032,36.479998 83.905,36.88 C83.2549968,37.280002 82.4200051,37.48 81.4,37.48 C80.6399962,37.48 79.9250033,37.3550013 79.255,37.105 C78.5849966,36.8549987 78.0000025,36.5100022 77.5,36.07 C76.9999975,35.6299978 76.6100014,35.1000031 76.33,34.48 C76.0499986,33.8599969 75.91,33.1800037 75.91,32.44 C75.91,31.6799962 76.0599985,30.9950031 76.36,30.385 C76.6600015,29.774997 77.0799973,29.2500022 77.62,28.81 C78.1600027,28.3699978 78.7949963,28.0350011 79.525,27.805 C80.2550036,27.5749989 81.0499957,27.46 81.91,27.46 C82.8700048,27.46 83.6599969,27.5349993 84.28,27.685 C84.9000031,27.8350007 85.409998,27.9899992 85.81,28.15 L85.81,27.7 C85.81,26.9199961 85.5000031,26.2750025 84.88,25.765 C84.2599969,25.2549975 83.4900046,25 82.57,25 C81.2099932,25 80.0600047,25.5699943 79.12,26.71 L76.27,24.76 C77.8300078,22.7999902 79.9599865,21.82 82.66,21.82 C84.9400114,21.82 86.679994,22.3549947 87.88,23.425 C89.080006,24.4950053 89.68,26.0799895 89.68,28.18 L89.68,37 L85.81,37 L85.81,35.44 Z M85.81,31.03 C85.3499977,30.8099989 84.8750024,30.6350006 84.385,30.505 C83.8949975,30.3749993 83.3600029,30.31 82.78,30.31 C81.8399953,30.31 81.1150025,30.5149979 80.605,30.925 C80.0949974,31.335002 79.84,31.839997 79.84,32.44 C79.84,33.040003 80.0849975,33.5199982 80.575,33.88 C81.0650025,34.2400018 81.6299968,34.42 82.27,34.42 C82.7900026,34.42 83.2699978,34.325001 83.71,34.135 C84.1500022,33.944999 84.5249984,33.6950016 84.835,33.385 C85.1450016,33.0749984 85.3849991,32.715002 85.555,32.305 C85.7250009,31.8949979 85.81,31.4700022 85.81,31.03 Z M93.62,25.66 L93.62,22.3 L93.62,17.8 L97.55,17.8 L97.55,22.3 L101.15,22.3 L101.15,25.66 L97.55,25.66 L97.55,31.36 C97.55,31.7000017 97.5849997,32.0149986 97.655,32.305 C97.7250004,32.5950014 97.859999,32.839999 98.06,33.04 C98.3400014,33.3600016 98.7399974,33.52 99.26,33.52 C99.6000017,33.52 99.869999,33.4850003 100.07,33.415 C100.270001,33.3449996 100.459999,33.2500006 100.64,33.13 L101.75,36.58 C101.289998,36.8000011 100.795003,36.9649995 100.265,37.075 C99.7349974,37.1850005 99.1500032,37.24 98.51,37.24 C97.7699963,37.24 97.1050029,37.1250012 96.515,36.895 C95.9249971,36.6649989 95.430002,36.350002 95.03,35.95 C94.0899953,35.0499955 93.62,33.7700083 93.62,32.11 L93.62,25.66 Z M112.29,35.44 L112.05,35.44 C111.589998,36.0000028 111.035003,36.479998 110.385,36.88 C109.734997,37.280002 108.900005,37.48 107.88,37.48 C107.119996,37.48 106.405003,37.3550013 105.735,37.105 C105.064997,36.8549987 104.480002,36.5100022 103.98,36.07 C103.479997,35.6299978 103.090001,35.1000031 102.81,34.48 C102.529999,33.8599969 102.39,33.1800037 102.39,32.44 C102.39,31.6799962 102.539998,30.9950031 102.84,30.385 C103.140001,29.774997 103.559997,29.2500022 104.1,28.81 C104.640003,28.3699978 105.274996,28.0350011 106.005,27.805 C106.735004,27.5749989 107.529996,27.46 108.39,27.46 C109.350005,27.46 110.139997,27.5349993 110.76,27.685 C111.380003,27.8350007 111.889998,27.9899992 112.29,28.15 L112.29,27.7 C112.29,26.9199961 111.980003,26.2750025 111.36,25.765 C110.739997,25.2549975 109.970005,25 109.05,25 C107.689993,25 106.540005,25.5699943 105.6,26.71 L102.75,24.76 C104.310008,22.7999902 106.439987,21.82 109.14,21.82 C111.420011,21.82 113.159994,22.3549947 114.36,23.425 C115.560006,24.4950053 116.16,26.0799895 116.16,28.18 L116.16,37 L112.29,37 L112.29,35.44 Z M112.29,31.03 C111.829998,30.8099989 111.355002,30.6350006 110.865,30.505 C110.374998,30.3749993 109.840003,30.31 109.26,30.31 C108.319995,30.31 107.595003,30.5149979 107.085,30.925 C106.574997,31.335002 106.32,31.839997 106.32,32.44 C106.32,33.040003 106.564998,33.5199982 107.055,33.88 C107.545002,34.2400018 108.109997,34.42 108.75,34.42 C109.270003,34.42 109.749998,34.325001 110.19,34.135 C110.630002,33.944999 111.004998,33.6950016 111.315,33.385 C111.625002,33.0749984 111.864999,32.715002 112.035,32.305 C112.205001,31.8949979 112.29,31.4700022 112.29,31.03 Z M125.83,37.48 C124.909995,37.48 124.030004,37.3500013 123.19,37.09 C122.349996,36.8299987 121.580003,36.4400026 120.88,35.92 C120.179997,35.3999974 119.570003,34.7650038 119.05,34.015 C118.529997,33.2649962 118.120002,32.390005 117.82,31.39 L121.63,29.89 C121.910001,30.9700054 122.399997,31.8649964 123.1,32.575 C123.800003,33.2850035 124.719994,33.64 125.86,33.64 C126.280002,33.64 126.684998,33.5850006 127.075,33.475 C127.465002,33.3649994 127.814998,33.205001 128.125,32.995 C128.435002,32.784999 128.679999,32.5200016 128.86,32.2 C129.040001,31.8799984 129.13,31.5100021 129.13,31.09 C129.13,30.689998 129.060001,30.3300016 128.92,30.01 C128.779999,29.6899984 128.545002,29.3900014 128.215,29.11 C127.884998,28.8299986 127.455003,28.5600013 126.925,28.3 C126.394997,28.0399987 125.740004,27.7700014 124.96,27.49 L123.64,27.01 C123.059997,26.809999 122.475003,26.5400017 121.885,26.2 C121.294997,25.8599983 120.760002,25.4500024 120.28,24.97 C119.799998,24.4899976 119.405002,23.9250032 119.095,23.275 C118.784998,22.6249968 118.63,21.8900041 118.63,21.07 C118.63,20.2299958 118.794998,19.4450037 119.125,18.715 C119.455002,17.9849964 119.924997,17.3450027 120.535,16.795 C121.145003,16.2449973 121.874996,15.8150016 122.725,15.505 C123.575004,15.1949984 124.519995,15.04 125.56,15.04 C126.640005,15.04 127.574996,15.1849986 128.365,15.475 C129.155004,15.7650014 129.824997,16.1349978 130.375,16.585 C130.925003,17.0350023 131.369998,17.5299973 131.71,18.07 C132.050002,18.6100027 132.299999,19.1199976 132.46,19.6 L128.89,21.1 C128.689999,20.499997 128.325003,19.9600024 127.795,19.48 C127.264997,18.9999976 126.540005,18.76 125.62,18.76 C124.739996,18.76 124.010003,18.964998 123.43,19.375 C122.849997,19.785002 122.56,20.3199967 122.56,20.98 C122.56,21.6200032 122.839997,22.1649978 123.4,22.615 C123.960003,23.0650022 124.849994,23.4999979 126.07,23.92 L127.42,24.37 C128.280004,24.6700015 129.064996,25.014998 129.775,25.405 C130.485004,25.7950019 131.094997,26.2599973 131.605,26.8 C132.115003,27.3400027 132.504999,27.9549965 132.775,28.645 C133.045001,29.3350034 133.18,30.1299955 133.18,31.03 C133.18,32.1500056 132.955002,33.1149959 132.505,33.925 C132.054998,34.7350041 131.480004,35.3999974 130.78,35.92 C130.079996,36.4400026 129.290004,36.8299987 128.41,37.09 C127.529996,37.3500013 126.670004,37.48 125.83,37.48 Z M142.49,21.82 C143.630006,21.82 144.674995,22.014998 145.625,22.405 C146.575005,22.795002 147.394997,23.3349965 148.085,24.025 C148.775003,24.7150035 149.314998,25.5399952 149.705,26.5 C150.095002,27.4600048 150.29,28.5099943 150.29,29.65 C150.29,30.7900057 150.095002,31.8399952 149.705,32.8 C149.314998,33.7600048 148.775003,34.5849965 148.085,35.275 C147.394997,35.9650034 146.575005,36.504998 145.625,36.895 C144.674995,37.2850019 143.630006,37.48 142.49,37.48 C141.349994,37.48 140.305005,37.2850019 139.355,36.895 C138.404995,36.504998 137.585003,35.9650034 136.895,35.275 C136.204997,34.5849965 135.665002,33.7600048 135.275,32.8 C134.884998,31.8399952 134.69,30.7900057 134.69,29.65 C134.69,28.5099943 134.884998,27.4600048 135.275,26.5 C135.665002,25.5399952 136.204997,24.7150035 136.895,24.025 C137.585003,23.3349965 138.404995,22.795002 139.355,22.405 C140.305005,22.014998 141.349994,21.82 142.49,21.82 Z M142.49,33.85 C142.990003,33.85 143.474998,33.7550009 143.945,33.565 C144.415002,33.374999 144.829998,33.1000018 145.19,32.74 C145.550002,32.3799982 145.834999,31.9400026 146.045,31.42 C146.255001,30.8999974 146.36,30.3100033 146.36,29.65 C146.36,28.9899967 146.255001,28.4000026 146.045,27.88 C145.834999,27.3599974 145.550002,26.9200018 145.19,26.56 C144.829998,26.1999982 144.415002,25.9250009 143.945,25.735 C143.474998,25.544999 142.990003,25.45 142.49,25.45 C141.969997,25.45 141.480002,25.544999 141.02,25.735 C140.559998,25.9250009 140.150002,26.1999982 139.79,26.56 C139.429998,26.9200018 139.145001,27.3599974 138.935,27.88 C138.724999,28.4000026 138.62,28.9899967 138.62,29.65 C138.62,30.3100033 138.724999,30.8999974 138.935,31.42 C139.145001,31.9400026 139.429998,32.3799982 139.79,32.74 C140.150002,33.1000018 140.559998,33.374999 141.02,33.565 C141.480002,33.7550009 141.969997,33.85 142.49,33.85 Z M162.33,35.08 L162.09,35.08 C161.629998,35.8200037 161.010004,36.4049979 160.23,36.835 C159.449996,37.2650022 158.560005,37.48 157.56,37.48 C155.699991,37.48 154.315005,36.9100057 153.405,35.77 C152.494995,34.6299943 152.04,33.1100095 152.04,31.21 L152.04,22.3 L155.97,22.3 L155.97,30.73 C155.97,31.7900053 156.204998,32.5749974 156.675,33.085 C157.145002,33.5950026 157.829995,33.85 158.73,33.85 C159.270003,33.85 159.744998,33.7350012 160.155,33.505 C160.565002,33.2749989 160.914999,32.965002 161.205,32.575 C161.495001,32.1849981 161.714999,31.7250027 161.865,31.195 C162.015001,30.6649974 162.09,30.100003 162.09,29.5 L162.09,22.3 L166.02,22.3 L166.02,37 L162.33,37 L162.33,35.08 Z M168.88,28.5 C168.88,27.1666667 169.586667,25.6666667 171,24 C173.520135,21.0281426 177.974998,21.9299995 178.345,22.03 C178.715002,22.1300005 179.029999,22.2599992 179.29,22.42 L178.24,25.99 C177.999999,25.8699994 177.735001,25.7750003 177.445,25.705 C177.154999,25.6349997 176.800002,25.6 176.38,25.6 C175.839997,25.6 175.350002,25.7049989 174.91,25.915 C174.469998,26.125001 174.095002,26.4199981 173.785,26.8 C173.474998,27.1800019 173.235001,27.6249975 173.065,28.135 C172.894999,28.6450026 172.81,29.199997 172.81,29.8 L172.81,37 L168.88,37 L168.88,28.5 Z M193.64,33.25 C192.999997,34.4900062 192.105006,35.5049961 190.955,36.295 C189.804994,37.085004 188.370009,37.48 186.65,37.48 C185.509994,37.48 184.465005,37.2850019 183.515,36.895 C182.564995,36.504998 181.745003,35.9600035 181.055,35.26 C180.364997,34.5599965 179.825002,33.7350048 179.435,32.785 C179.044998,31.8349952 178.85,30.7900057 178.85,29.65 C178.85,28.5099943 179.044998,27.4600048 179.435,26.5 C179.825002,25.5399952 180.364997,24.7150035 181.055,24.025 C181.745003,23.3349965 182.564995,22.795002 183.515,22.405 C184.465005,22.014998 185.509994,21.82 186.65,21.82 C188.350008,21.82 189.779994,22.2099961 190.94,22.99 C192.100006,23.7700039 192.949997,24.7799938 193.49,26.02 L189.89,27.52 C189.549998,26.8399966 189.115003,26.3250017 188.585,25.975 C188.054997,25.6249983 187.390004,25.45 186.59,25.45 C186.069997,25.45 185.580002,25.549999 185.12,25.75 C184.659998,25.950001 184.255002,26.2299982 183.905,26.59 C183.554998,26.9500018 183.280001,27.3899974 183.08,27.91 C182.879999,28.4300026 182.78,29.0099968 182.78,29.65 C182.78,30.2900032 182.879999,30.8699974 183.08,31.39 C183.280001,31.9100026 183.554998,32.3499982 183.905,32.71 C184.255002,33.0700018 184.659998,33.349999 185.12,33.55 C185.580002,33.750001 186.069997,33.85 186.59,33.85 C187.410004,33.85 188.104997,33.6650018 188.675,33.295 C189.245003,32.9249982 189.699998,32.3900035 190.04,31.69 L193.64,33.25 Z M209.31,33.46 C208.629997,34.660006 207.715006,35.6299963 206.565,36.37 C205.414994,37.1100037 204.010008,37.48 202.35,37.48 C201.229994,37.48 200.195005,37.2850019 199.245,36.895 C198.294995,36.504998 197.470003,35.9600035 196.77,35.26 C196.069996,34.5599965 195.525002,33.7350048 195.135,32.785 C194.744998,31.8349952 194.55,30.7900057 194.55,29.65 C194.55,28.5899947 194.739998,27.5850047 195.12,26.635 C195.500002,25.6849953 196.029997,24.8550035 196.71,24.145 C197.390003,23.4349964 198.194995,22.8700021 199.125,22.45 C200.055005,22.0299979 201.079994,21.82 202.2,21.82 C203.380006,21.82 204.429995,22.014998 205.35,22.405 C206.270005,22.795002 207.039997,23.3349965 207.66,24.025 C208.280003,24.7150035 208.749998,25.5299953 209.07,26.47 C209.390002,27.4100047 209.55,28.4299945 209.55,29.53 L209.55,29.89 C209.53,30.0100006 209.52,30.1199995 209.52,30.22 C209.5,30.3200005 209.49,30.4299994 209.49,30.55 L198.42,30.55 C198.5,31.150003 198.664999,31.6649978 198.915,32.095 C199.165001,32.5250021 199.474998,32.8849985 199.845,33.175 C200.215002,33.4650015 200.619998,33.6749993 201.06,33.805 C201.500002,33.9350006 201.949998,34 202.41,34 C203.310004,34 204.054997,33.7950021 204.645,33.385 C205.235003,32.974998 205.699998,32.4600031 206.04,31.84 L209.31,33.46 Z M205.74,27.76 C205.72,27.4999987 205.635001,27.2100016 205.485,26.89 C205.334999,26.5699984 205.115001,26.2700014 204.825,25.99 C204.534999,25.7099986 204.175002,25.4800009 203.745,25.3 C203.314998,25.1199991 202.800003,25.03 202.2,25.03 C201.359996,25.03 200.620003,25.2699976 199.98,25.75 C199.339997,26.2300024 198.890001,26.8999957 198.63,27.76 L205.74,27.76 Z" id="DataSource-Copy" fill="#F8F8F8"></path>
            <g id="cloud">
                <g id="additional-" transform="translate(6.000000, 3.000000)"></g>
            </g>
        </g>
    </g>
</svg>
